<?xml version="1.0" encoding="UTF-8"?><svg id="_图层_1" xmlns="http://www.w3.org/2000/svg" viewBox="0 0 51.5 28"><defs><style>.cls-1{fill:#00ccb8;stroke-width:0px;}</style></defs><path class="cls-1" d="m23.07,10.66h-2.14v9.7h3.34v-8.49c0-.66-.54-1.2-1.2-1.2Z"/><path class="cls-1" d="m22.6,6.08c-.98,0-1.77.79-1.77,1.77s.79,1.77,1.77,1.77,1.77-.79,1.77-1.77-.79-1.77-1.77-1.77Z"/><path class="cls-1" d="m50.2,10.66h-2.14v9.7h3.34v-8.49c0-.66-.54-1.2-1.2-1.2Z"/><path class="cls-1" d="m49.73,9.62c.98,0,1.77-.79,1.77-1.77s-.79-1.77-1.77-1.77-1.77.79-1.77,1.77.79,1.77,1.77,1.77Z"/><path class="cls-1" d="m42.39,10.43c-1.29,0-2.31.45-3.12,1.09v-4.11c0-.66-.54-1.2-1.2-1.2h-2.1v14.15h3.31v-6.16c.6-.65,1.35-1.15,2.25-1.15,1.22,0,1.48.8,1.48,1.48v5.83h3.31v-5.91c0-2.7-1.28-4.01-3.92-4.01Z"/><path class="cls-1" d="m34.51,12.6v-.74c0-.66-.54-1.21-1.2-1.21h-7.48v2.44h4.34l-4.47,5.24v1.98h9.04v-2.44h-4.62l4.4-5.27Z"/><path class="cls-1" d="m20.79,26.25c0,.97-.79,1.75-1.78,1.75s-1.78-.78-1.78-1.75.79-1.75,1.78-1.75,1.78.78,1.78,1.75"/><path class="cls-1" d="m0,9.25v7.99c0,5.11,4.2,9.25,9.38,9.25h0c5.18,0,9.38-4.14,9.38-9.25v-7.99c0-5.11-4.2-9.25-9.38-9.25h0C4.2,0,0,4.14,0,9.25Zm5.07,7.99v-7.99c0-2.35,1.93-4.25,4.31-4.25h0c2.38,0,4.31,1.9,4.31,4.25v7.99c0,2.35-1.93,4.25-4.31,4.25h0c-2.38,0-4.31-1.9-4.31-4.25Z"/></svg>