<?xml version="1.0" encoding="UTF-8"?><svg id="_图层_1" xmlns="http://www.w3.org/2000/svg" viewBox="0 0 128.36 28"><defs><style>.cls-1{fill:#fff;stroke-width:0px;}</style></defs><path class="cls-1" d="m20.79,26.25c0,.97-.79,1.75-1.78,1.75s-1.78-.78-1.78-1.75.79-1.75,1.78-1.75,1.78.78,1.78,1.75"/><path class="cls-1" d="m0,9.25v7.99c0,5.11,4.2,9.25,9.38,9.25h0c5.18,0,9.38-4.14,9.38-9.25v-7.99c0-5.11-4.2-9.25-9.38-9.25h0C4.2,0,0,4.14,0,9.25Zm5.07,7.99v-7.99c0-2.35,1.93-4.25,4.31-4.25h0c2.38,0,4.31,1.9,4.31,4.25v7.99c0,2.35-1.93,4.25-4.31,4.25h0c-2.38,0-4.31-1.9-4.31-4.25Z"/><polygon class="cls-1" points="98.82 1.71 95.93 1.71 95.93 17.1 87.09 17.1 87.09 18.74 95.93 18.74 95.93 25.71 98.82 25.71 98.82 18.74 102.02 18.74 102.02 17.1 98.82 17.1 98.82 1.71"/><rect class="cls-1" x="41.54" y="15.46" width="3.46" height="10.86"/><path class="cls-1" d="m91.06,6.74c.28.22.58.45.9.7.53.4,1.06.81,1.58,1.24l1.99-2.3c-.24-.15-.5-.31-.78-.47-.28-.16-.58-.32-.87-.46-.28-.15-.58-.31-.92-.47-.32-.15-.67-.31-1.07-.5-.38-.17-.79-.34-1.21-.52-.43-.18-.89-.37-1.38-.56l-.3-.12-.99,1.32,2.24,1.56c.26.18.53.38.81.59Z"/><path class="cls-1" d="m91.06,13.27c.28.22.58.45.9.7.53.4,1.06.81,1.58,1.24l1.99-2.3c-.24-.15-.5-.31-.78-.47-.28-.16-.58-.32-.87-.46-.28-.15-.58-.31-.92-.47-.32-.15-.67-.31-1.07-.5-.38-.17-.79-.34-1.21-.52-.43-.18-.89-.37-1.38-.56l-.3-.12-.99,1.32,2.24,1.56c.26.18.53.38.81.59Z"/><path class="cls-1" d="m50.76,3.8c1.78,1.12,4.87,3.62,4.87,3.62l1.99-2.3c-2.14-1.39-5.74-2.8-5.74-2.8l-1.11,1.48Z"/><path class="cls-1" d="m57.28,10.78c-2.14-1.39-5.74-2.8-5.74-2.8l-1.11,1.48c1.78,1.12,4.87,3.62,4.87,3.62l1.99-2.3Z"/><path class="cls-1" d="m69.74,5.32s.85,1.56,1.77,4.04c-5.06.76-10.9.81-10.9.81,2.62-2.36,5.01-4.92,6.38-8.02l-3.1-1.19c-2.01,5.54-4.7,7.68-5.52,8.76-.82,1.08,0,2.22,1.03,2.22,6.75,0,10.79-.51,12.72-.85.2.63.4,1.29.58,1.98l3.09-1.18s-1.95-4.31-4.69-7.52l-1.35.93Z"/><path class="cls-1" d="m50.61,24.54l2.8,1.78c2.59-4.77,3.69-9.83,4.04-11.38l-1.77-.53c-2.35,6.14-4.54,9.26-5.08,10.13Z"/><path class="cls-1" d="m84.24,9.91v-.39h3.37v-1.66h-3.37v-3.4c1.56-.12,2.79-.3,3.14-.5l-.78-2.02c-3.47.97-8.5.95-8.5.95l.36,1.6c.9.07,1.9.1,2.89.09v3.28h-3.5v1.66h3.5c-1.42,4.62-4.14,10.05-4.14,10.05l1.37.95c.92-1,2.76-4.37,2.76-4.37v9.55h2.89v-11.41c.69,1.67,1.29,3.29,1.29,3.29l2.49-1.51c-1.24-2.44-3.78-6.17-3.78-6.17Z"/><path class="cls-1" d="m109.84,16.26c.8-.26,1.61-.56,2.39-.9l-.6-1.69s-.67.22-1.79.52v-7.24h2.1v-1.69h-2.1V1.16h-3.09s0,1.7,0,4.1h-3.18v1.69h3.18c0,2.51,0,5.43.01,7.95-1,.2-2.09.39-3.25.53l.44,2.19s1.17-.16,2.81-.53c0,1.52,0,2.71,0,3.28,0,2.71-1.46,3.91-2.13,4.59l1.03,1.22c3.2-1.37,4.17-4.27,4.17-6.26v-3.66Z"/><path class="cls-1" d="m128.36,22.95c-.65-.24-3.36-1.11-6.5-3.18,2.72-2.43,4.15-4.9,4.77-7.12.4-1.42-.65-2.84-2.13-2.84h-3.7v-3.8h6.29v-1.67h-6.29V1.16h-3.09v3.17h-5.52v1.67h5.52v3.8h-6.27v1.66h11.13c.39,0,.69.36.61.75-.42,2.03-1.67,4-3.6,5.87-1.88-1.54-3.79-3.52-5.4-6.05l-1.55.55c.5,1.14,1.79,4.13,4.84,7.31-2.09,1.6-4.69,3.12-7.68,4.54l.75,1.7c3.66-1.37,6.56-2.88,8.84-4.44,1.84,1.57,4.15,3.12,7.05,4.44l1.93-3.19Z"/><path class="cls-1" d="m60.79,14.3h-1.73v11.03h13.15c1.02,0,1.85-.83,1.85-1.85v-9.18h-13.28Zm10.19,1.67v7.7h-8.82v-7.7h8.82Z"/><path class="cls-1" d="m45.05,5.78h4.25v-1.69h-8.86l.63-.77c-2.43-1.59-4.25-2.27-5.37-2.68l-.94,1.22c.98.81,1.85,1.59,2.55,2.23h-11.93v1.69h4.37c1.36,1.9,3.14,3.59,5.22,5.02-2.55,1.37-5.77,2.46-9.76,3.01l.59,1.67c2.54-.18,7.35-.91,11.76-3.11,3.27,1.75,7.05,2.96,10.97,3.52l1.47-3.14c-2.19-.22-5.74-.74-9.51-2.12,1.79-1.27,3.38-2.86,4.56-4.84Zm-12.96,0h8.88c-.88,1.2-2.06,2.4-3.58,3.51-1.83-.91-3.64-2.06-5.3-3.51Z"/><path class="cls-1" d="m30.06,18.37c0,1.58-.53,4.28-3.99,6.58l.85,1.37c1.16-.46,6.61-2.45,6.61-8.57v-2.27h-3.46v2.89Z"/></svg>